
<svg version="1.1" id="Layer_1" xmlns="http://www.w3.org/2000/svg" xmlns:xlink="http://www.w3.org/1999/xlink" x="0px" y="0px"
	 width="2194px" height="458px" viewBox="0 0 2194 458" enable-background="new 0 0 2194 458" xml:space="preserve">
<path fill="none" stroke="#FFFFFF" stroke-width="4" stroke-miterlimit="10" d="M338.104,161.414
	c-0.798,3.455-1.928,6.045-3.388,7.771c-1.992,2.26-4.915,3.387-8.766,3.387c-3.72,0-6.443-0.663-8.168-1.992
	c-2.126-1.725-3.785-4.781-4.98-9.164L284.514,60.41l-28.289,101.004c-1.329,4.383-3.057,7.439-5.18,9.164
	c-1.728,1.329-4.383,1.992-7.969,1.992c-3.854,0-6.773-1.127-8.766-3.387c-1.463-1.726-2.524-4.314-3.188-7.771L208.014,37.898
	l17.133-3.188l18.926,116.941l32.871-114.949h15.34l32.672,114.949L343.882,34.71l17.332,3.188L338.104,161.414z"/>
<path fill="none" stroke="#FFFFFF" stroke-width="4" stroke-miterlimit="10" d="M391.096,171.574c-3.057,0-5.379-0.928-6.973-2.789
	c-1.329-1.725-1.992-3.916-1.992-6.574V43.875c0-2.789,0.663-4.979,1.992-6.573c1.594-1.726,3.916-2.591,6.973-2.591h55.384v15.738
	h-39.845c-3.32,0-5.446,0.467-6.375,1.396c-0.797,0.931-1.194,3.057-1.194,6.375v29.483c0,3.321,0.464,5.447,1.395,6.375
	c0.797,0.931,2.854,1.396,6.176,1.396h36.06v15.737h-36.06c-3.32,0-5.379,0.398-6.176,1.195c-0.931,0.931-1.395,2.988-1.395,6.176
	v29.484c0,3.321,0.464,5.447,1.395,6.375c0.797,0.931,2.854,1.395,6.176,1.395h39.844v15.738H391.096z"/>
<path fill="none" stroke="#FFFFFF" stroke-width="4" stroke-miterlimit="10" d="M480.943,171.574c-3.058,0-5.379-0.928-6.974-2.789
	c-1.463-1.725-2.19-3.916-2.19-6.574v-127.5h16.934v113.355c0,3.321,0.464,5.447,1.396,6.375c0.928,0.931,3.054,1.395,6.375,1.395
	h35.262v15.738H480.943L480.943,171.574z"/>
<path fill="none" stroke="#FFFFFF" stroke-width="4" stroke-miterlimit="10" d="M631.951,168.387
	c-7.704,2.789-16.071,4.184-25.103,4.184c-18.859,0-33.866-7.172-45.022-21.516c-9.961-13.016-14.941-29.019-14.941-48.013
	c0-19.125,5.046-35.128,15.142-48.012c11.155-14.21,26.428-21.316,45.819-21.316c9.295,0,17.662,1.861,25.103,5.578
	c6.106,3.058,10.889,6.974,14.344,11.754l-11.555,8.966l-1.793-1.595c-3.586-3.188-6.708-5.443-9.363-6.772
	c-4.781-2.257-10.359-3.388-16.734-3.388c-14.213,0-25.17,5.847-32.871,17.531c-6.643,10.095-9.961,22.512-9.961,37.254
	c0,14.611,3.318,27.028,9.961,37.254c7.57,11.822,18.194,17.73,31.875,17.73c6.641,0,13.479-1.594,20.521-4.781
	c3.851-1.725,8.367-4.313,13.547-7.77l0.797-0.398l7.172,12.949C644.767,162.279,639.123,165.731,631.951,168.387z"/>
<path fill="none" stroke="#FFFFFF" stroke-width="4" stroke-miterlimit="10" d="M771.205,151.055
	c-11.156,14.344-26.032,21.516-44.625,21.516c-18.596,0-33.469-7.172-44.625-21.516c-10.095-13.016-15.141-29.019-15.141-48.013
	c0-18.99,5.046-34.994,15.141-48.012c11.156-14.21,26.029-21.316,44.625-21.316c18.459,0,33.335,7.106,44.625,21.316
	c10.226,13.018,15.34,29.021,15.34,48.012C786.545,122.037,781.431,138.04,771.205,151.055z M759.053,65.789
	c-7.438-11.686-18.263-17.531-32.473-17.531c-14.079,0-24.837,5.847-32.273,17.531c-6.244,9.961-9.362,22.381-9.362,37.254
	c0,14.876,3.119,27.293,9.362,37.254c7.304,11.822,18.062,17.73,32.273,17.73c14.21,0,25.033-5.908,32.473-17.73
	c6.375-9.961,9.563-22.378,9.563-37.254C768.615,88.17,765.428,75.75,759.053,65.789z"/>
<path fill="none" stroke="#FFFFFF" stroke-width="4" stroke-miterlimit="10" d="M937.951,171.375L921.018,54.832l-32.87,110.965
	c-0.798,2.524-1.992,4.317-3.586,5.38c-1.329,0.931-3.058,1.395-5.181,1.395c-2.126,0-3.854-0.464-5.18-1.395
	c-1.463-1.063-2.59-2.854-3.387-5.38L837.943,54.832L820.81,171.375h-17.332l21.117-124.711c0.663-4.646,2.258-8.034,4.781-10.16
	c2.257-1.857,5.111-2.789,8.566-2.789c3.317,0,5.907,0.666,7.77,1.992c1.992,1.463,3.452,3.785,4.383,6.974l29.086,99.809h0.599
	l28.887-99.809c0.928-3.188,2.391-5.511,4.383-6.974c1.992-1.326,4.647-1.992,7.97-1.992c3.317,0,6.106,0.932,8.366,2.789
	c2.521,2.126,4.115,5.514,4.781,10.16l21.316,124.711H937.951z"/>
<path fill="none" stroke="#FFFFFF" stroke-width="4" stroke-miterlimit="10" d="M985.963,171.574c-3.057,0-5.379-0.928-6.973-2.789
	c-1.329-1.725-1.992-3.916-1.992-6.574V43.875c0-2.789,0.663-4.979,1.992-6.573c1.594-1.726,3.916-2.591,6.973-2.591h55.383v15.738
	h-39.844c-3.321,0-5.447,0.467-6.375,1.396c-0.797,0.931-1.195,3.057-1.195,6.375v29.483c0,3.321,0.465,5.447,1.396,6.375
	c0.797,0.931,2.854,1.396,6.176,1.396h36.06v15.737h-36.06c-3.32,0-5.379,0.398-6.176,1.195c-0.931,0.931-1.396,2.988-1.396,6.176
	v29.484c0,3.321,0.465,5.447,1.396,6.375c0.797,0.931,2.854,1.395,6.176,1.395h39.844v15.738H985.963z"/>
<path fill="none" stroke="#FFFFFF" stroke-width="4" stroke-miterlimit="10" d="M1161.275,84.117c-2.261,0-3.654,0.199-4.185,0.598
	c-0.531,0.532-0.797,1.928-0.797,4.185v83.473h-16.734V88.898c0-2.257-0.268-3.651-0.797-4.185c-0.531-0.397-1.86-0.598-3.983-0.598
	h-9.363V69.375h9.363c2.257,0,3.586-0.198,3.983-0.598c0.529-0.529,0.797-1.924,0.797-4.184V39.492h16.734v25.103
	c0,2.26,0.266,3.653,0.797,4.184c0.398,0.398,1.793,0.598,4.185,0.598h9.362v14.742L1161.275,84.117L1161.275,84.117z"/>
<path fill="none" stroke="#FFFFFF" stroke-width="4" stroke-miterlimit="10" d="M1262.678,157.23
	c-8.366,10.627-19.393,15.938-33.069,15.938c-13.814,0-24.902-5.311-33.271-15.938c-7.838-9.827-11.754-21.846-11.754-36.06
	c0-14.475,3.916-26.627,11.754-36.457c8.367-10.489,19.455-15.737,33.271-15.737c13.678,0,24.703,5.248,33.069,15.737
	c7.835,9.83,11.754,21.982,11.754,36.457C1274.432,135.385,1270.513,147.403,1262.678,157.23z M1251.322,95.672
	c-5.049-8.1-12.286-12.151-21.715-12.151c-9.563,0-16.868,4.053-21.914,12.151c-4.118,6.907-6.177,15.408-6.177,25.5
	c0,9.83,2.059,18.197,6.177,25.103c5.046,8.236,12.352,12.352,21.914,12.352c9.429,0,16.666-4.114,21.715-12.352
	c4.249-6.904,6.375-15.271,6.375-25.103C1257.697,111.08,1255.571,102.579,1251.322,95.672z"/>
<path fill="none" stroke="#FFFFFF" stroke-width="4" stroke-miterlimit="10" d="M1494.369,171.375l-16.935-116.543l-32.87,110.965
	c-0.798,2.524-1.992,4.317-3.587,5.38c-1.328,0.931-3.057,1.395-5.18,1.395c-2.126,0-3.854-0.464-5.18-1.395
	c-1.463-1.063-2.59-2.854-3.387-5.38L1394.36,54.832l-17.134,116.543h-17.332l21.117-124.711c0.663-4.646,2.257-8.034,4.781-10.16
	c2.257-1.857,5.11-2.789,8.565-2.789c3.318,0,5.908,0.666,7.771,1.992c1.992,1.463,3.452,3.785,4.383,6.974l29.086,99.809h0.599
	l28.887-99.809c0.928-3.188,2.391-5.511,4.383-6.974c1.992-1.326,4.647-1.992,7.969-1.992c3.318,0,6.107,0.932,8.367,2.789
	c2.521,2.126,4.115,5.514,4.781,10.16l21.316,124.711H1494.369z"/>
<path fill="none" stroke="#FFFFFF" stroke-width="4" stroke-miterlimit="10" d="M1581.627,101.848
	c-0.931,1.594-1.594,3.057-1.992,4.383c-0.666,2.126-0.996,4.118-0.996,5.977v60.164h-16.733v-60.164
	c0-1.992-0.269-3.785-0.797-5.379c-0.398-1.725-0.996-3.317-1.793-4.781l-37.853-61.159l13.547-7.371l32.672,53.391
	c0.929,1.594,1.858,2.391,2.789,2.391c0.797,0,1.726-0.861,2.789-2.59l32.074-53.19l13.348,7.371L1581.627,101.848z"/>
<path fill="none" stroke="#FFFFFF" stroke-width="4" stroke-miterlimit="10" d="M1767.697,159.422
	c-8.501,8.767-19.856,13.148-34.066,13.148c-9.961,0-18.263-1.46-24.901-4.383c-5.181-2.257-10.096-5.843-14.742-10.758
	l9.961-10.759l1.594,1.195c4.115,2.923,7.771,5.049,10.957,6.375c5.312,2.524,11.088,3.785,17.332,3.785
	c8.367,0,15.206-2.721,20.521-8.168c5.046-5.312,7.569-11.819,7.569-19.523c0-6.64-2.856-12.084-8.565-16.336
	c-3.455-2.521-9.896-5.578-19.324-9.164c-11.688-4.514-19.856-8.565-24.504-12.151c-7.57-6.375-11.355-14.941-11.355-25.699
	c0-8.766,3.318-16.336,9.961-22.711c7.438-7.038,17.198-10.56,29.285-10.56c7.038,0,13.612,1.329,19.724,3.984
	c4.114,1.729,8.565,4.383,13.348,7.969l-9.164,11.355c-3.984-2.789-7.371-4.781-10.16-5.978c-4.649-1.857-9.432-2.789-14.344-2.789
	c-6.375,0-11.623,1.793-15.738,5.38c-4.118,3.586-6.176,8.235-6.176,13.944c0,5.978,2.721,10.893,8.168,14.742
	c3.452,2.26,9.893,5.049,19.324,8.367c12.084,4.252,20.52,8.302,25.301,12.151c8.1,6.51,12.152,15.408,12.152,26.695
	C1779.85,141.361,1775.797,151.322,1767.697,159.422z"/>
<path fill="none" stroke="#FFFFFF" stroke-width="4" stroke-miterlimit="10" d="M1799.572,172.371V34.711h16.934v137.66H1799.572z"
	/>
<path fill="none" stroke="#FFFFFF" stroke-width="4" stroke-miterlimit="10" d="M1890.813,50.449c-3.32,0-5.446,0.467-6.375,1.396
	c-0.931,1.063-1.395,3.188-1.395,6.375v114.151h-16.734V58.219c0-3.318-0.467-5.444-1.395-6.375
	c-0.932-0.929-3.057-1.396-6.375-1.396h-24.504V34.711h81.479v15.738H1890.813z"/>
<path fill="none" stroke="#FFFFFF" stroke-width="4" stroke-miterlimit="10" d="M1942.213,171.574c-3.057,0-5.379-0.928-6.973-2.789
	c-1.329-1.725-1.992-3.916-1.992-6.574V43.875c0-2.789,0.663-4.979,1.992-6.573c1.594-1.726,3.916-2.591,6.973-2.591h55.383v15.738
	h-39.844c-3.321,0-5.447,0.467-6.375,1.396c-0.797,0.931-1.194,3.057-1.194,6.375v29.483c0,3.321,0.464,5.447,1.395,6.375
	c0.797,0.931,2.854,1.396,6.176,1.396h36.06v15.737h-36.06c-3.32,0-5.379,0.398-6.176,1.195c-0.931,0.931-1.395,2.988-1.395,6.176
	v29.484c0,3.321,0.464,5.447,1.395,6.375c0.797,0.931,2.854,1.395,6.176,1.395h39.844v15.738H1942.213z"/>
<path fill="none" stroke="#FFFFFF" stroke-width="4" stroke-miterlimit="10" d="M76.412,416.374c-3.057,0-5.379-0.928-6.973-2.789
	c-1.463-1.725-2.191-3.916-2.191-6.573v-127.5h16.934v113.354c0,3.321,0.464,5.447,1.395,6.375c0.928,0.931,3.054,1.396,6.375,1.396
	h35.262v15.737H76.412z"/>
<path fill="none" stroke="#FFFFFF" stroke-width="4" stroke-miterlimit="10" d="M156.1,416.374c-3.057,0-5.379-0.928-6.973-2.789
	c-1.329-1.725-1.992-3.916-1.992-6.573V288.675c0-2.788,0.663-4.979,1.992-6.573c1.594-1.726,3.916-2.59,6.973-2.59h55.383v15.737
	h-39.844c-3.321,0-5.447,0.467-6.375,1.396c-0.797,0.931-1.195,3.057-1.195,6.375v29.483c0,3.321,0.464,5.447,1.395,6.375
	c0.797,0.932,2.854,1.396,6.176,1.396h36.059v15.738H171.64c-3.321,0-5.379,0.397-6.176,1.194c-0.931,0.932-1.395,2.988-1.395,6.176
	v29.484c0,3.321,0.464,5.447,1.395,6.375c0.797,0.931,2.854,1.396,6.176,1.396h39.844v15.737H156.1z"/>
<path fill="none" stroke="#FFFFFF" stroke-width="4" stroke-miterlimit="10" d="M246.146,416.374c-3.057,0-5.379-0.928-6.973-2.789
	c-1.329-1.725-1.992-3.916-1.992-6.573V288.675c0-2.788,0.663-4.979,1.992-6.573c1.594-1.726,3.916-2.59,6.973-2.59h55.383v15.737
	h-39.844c-3.321,0-5.447,0.467-6.375,1.396c-0.797,0.931-1.195,3.057-1.195,6.375v29.483c0,3.321,0.464,5.447,1.395,6.375
	c0.797,0.932,2.854,1.396,6.176,1.396h36.059v15.738h-36.059c-3.321,0-5.379,0.397-6.176,1.194
	c-0.931,0.932-1.395,2.988-1.395,6.176v29.484c0,3.321,0.464,5.447,1.395,6.375c0.797,0.931,2.854,1.396,6.176,1.396h39.844v15.737
	H246.146z"/>
<path fill="none" stroke="#FFFFFF" stroke-width="4" stroke-miterlimit="10" d="M404.127,416.374c-3.057,0-5.379-0.928-6.973-2.789
	c-1.329-1.725-1.992-3.916-1.992-6.573V288.675c0-2.788,0.663-4.979,1.992-6.573c1.594-1.726,3.916-2.59,6.973-2.59h55.383v15.737
	h-39.844c-3.321,0-5.447,0.467-6.375,1.396c-0.797,0.931-1.195,3.057-1.195,6.375v29.483c0,3.321,0.464,5.447,1.396,6.375
	c0.797,0.932,2.854,1.396,6.176,1.396h36.059v15.738h-36.059c-3.321,0-5.379,0.397-6.176,1.194
	c-0.932,0.932-1.396,2.988-1.396,6.176v29.484c0,3.321,0.464,5.447,1.396,6.375c0.797,0.931,2.854,1.396,6.176,1.396h39.844v15.737
	H404.127z"/>
<path fill="none" stroke="#FFFFFF" stroke-width="4" stroke-miterlimit="10" d="M573.861,407.011
	c-8.767,6.906-20.454,10.358-35.063,10.358c-14.742,0-26.563-3.452-35.461-10.358c-11.688-9.296-17.531-24.236-17.531-44.824
	v-82.676h16.935v89.25c0,10.492,3.317,18.859,9.961,25.102c6.375,5.977,15.072,8.965,26.098,8.965
	c10.758,0,19.391-2.988,25.898-8.965c6.772-6.241,10.16-14.608,10.16-25.102v-89.25h16.733v82.676
	C591.592,382.774,585.681,397.716,573.861,407.011z"/>
<path fill="none" stroke="#FFFFFF" stroke-width="4" stroke-miterlimit="10" d="M724.471,414.78c-1.329,1.728-3.256,2.59-5.776,2.59
	c-2.524,0-4.65-0.663-6.375-1.992c-1.463-1.062-3.321-3.253-5.578-6.573l-69.328-100.009v108.177h-16.934V288.675
	c0-3.586,0.598-6.176,1.793-7.77c1.194-1.594,3.188-2.391,5.977-2.391c2.257,0,4.184,0.598,5.777,1.793
	c1.593,1.194,3.586,3.586,5.977,7.172l69.527,99.809V279.511h16.733v128.098C726.264,410.93,725.666,413.32,724.471,414.78z"/>
<path fill="none" stroke="#FFFFFF" stroke-width="4" stroke-miterlimit="10" d="M950.982,416.175l-16.935-116.543l-32.871,110.966
	c-0.797,2.523-1.992,4.316-3.586,5.379c-1.329,0.931-3.057,1.395-5.18,1.395c-2.126,0-3.854-0.464-5.18-1.395
	c-1.464-1.063-2.591-2.854-3.388-5.379l-32.871-110.966L833.84,416.175h-17.33l21.117-124.711c0.663-4.646,2.257-8.033,4.781-10.159
	c2.257-1.858,5.11-2.789,8.565-2.789c3.318,0,5.908,0.666,7.771,1.991c1.992,1.464,3.452,3.785,4.383,6.974l29.086,99.809h0.599
	l28.887-99.809c0.928-3.188,2.391-5.51,4.383-6.974c1.992-1.325,4.646-1.991,7.969-1.991c3.318,0,6.107,0.931,8.367,2.789
	c2.521,2.126,4.115,5.513,4.781,10.159l21.315,124.711H950.982z"/>
<path fill="none" stroke="#FFFFFF" stroke-width="4" stroke-miterlimit="10" d="M989.232,417.171V279.511h16.934v137.659H989.232z"
	/>
<path fill="none" stroke="#FFFFFF" stroke-width="4" stroke-miterlimit="10" d="M1032.264,317.562v-40.84h16.138v40.84H1032.264z"/>
<path fill="none" stroke="#FFFFFF" stroke-width="4" stroke-miterlimit="10" d="M1158.572,410.198
	c-6.907,5.18-15.408,7.77-25.5,7.77c-9.563,0-17.998-1.857-25.302-5.577c-6.243-3.055-10.957-7.038-14.145-11.953l9.762-9.961
	l1.396,1.194c4.114,3.188,7.701,5.578,10.758,7.172c5.843,3.058,11.819,4.582,17.93,4.582c5.844,0,10.689-1.46,14.543-4.383
	c3.587-2.789,5.38-5.977,5.38-9.563c0-4.115-2.459-7.771-7.371-10.957c-2.924-1.992-8.437-4.647-16.535-7.969
	c-10.096-4.115-17.133-7.637-21.117-10.56c-6.509-4.912-9.762-10.758-9.762-17.531c0-9.029,3.65-16.201,10.957-21.516
	c6.64-4.781,14.607-7.172,23.906-7.172c7.569,0,14.543,1.594,20.918,4.781c5.577,2.789,10.226,6.442,13.944,10.957l-9.563,10.758
	l-0.199-0.199c-3.72-3.452-6.974-5.977-9.762-7.57c-4.915-2.789-10.029-4.184-15.341-4.184c-5.18,0-9.362,0.996-12.551,2.988
	c-3.586,2.26-5.379,5.446-5.379,9.563c0,3.455,2.257,6.644,6.773,9.563c2.654,1.728,7.899,4.053,15.737,6.973
	c10.227,3.984,17.397,7.505,21.517,10.559c7.038,5.05,10.559,11.226,10.559,18.527
	C1170.127,396.586,1166.272,404.489,1158.572,410.198z"/>
<path fill="none" stroke="#FFFFFF" stroke-width="4" stroke-miterlimit="10" d="M1350.074,352.823
	c-8.367,8.236-18.795,12.352-31.277,12.352h-26.098v51.996h-16.734V288.675c0-2.788,0.663-4.979,1.992-6.573
	c1.594-1.726,3.916-2.59,6.973-2.59H1318c13.413,0,24.305,4.184,32.672,12.551c7.969,8.103,11.953,18.263,11.953,30.479
	C1362.625,334.629,1358.441,344.724,1350.074,352.823z M1339.117,303.219c-5.181-5.978-12.619-8.966-22.313-8.966h-16.336
	c-3.455,0-5.646,0.398-6.574,1.195c-0.797,0.797-1.194,2.923-1.194,6.375v41.238c0,3.188,0.397,5.248,1.194,6.176
	c0.929,0.931,3.119,1.395,6.574,1.395h17.332c8.1,0,14.809-2.721,20.121-8.168c5.18-5.311,7.77-11.952,7.77-19.922
	C1345.691,314.841,1343.5,308.397,1339.117,303.219z"/>
<path fill="none" stroke="#FFFFFF" stroke-width="4" stroke-miterlimit="10" d="M1480.363,395.854
	c-11.156,14.344-26.032,21.516-44.625,21.516c-18.597,0-33.47-7.172-44.625-21.516c-10.095-13.016-15.142-29.019-15.142-48.013
	c0-18.99,5.047-34.993,15.142-48.012c11.155-14.21,26.028-21.315,44.625-21.315c18.459,0,33.335,7.105,44.625,21.315
	c10.226,13.019,15.34,29.021,15.34,48.012C1495.703,366.837,1490.589,382.84,1480.363,395.854z M1468.211,310.589
	c-7.438-11.686-18.263-17.53-32.473-17.53c-14.079,0-24.837,5.846-32.273,17.53c-6.244,9.961-9.362,22.382-9.362,37.254
	c0,14.877,3.118,27.294,9.362,37.255c7.304,11.821,18.062,17.729,32.273,17.729c14.21,0,25.032-5.908,32.473-17.729
	c6.375-9.961,9.563-22.378,9.563-37.255C1477.772,332.97,1474.586,320.55,1468.211,310.589z"/>
<path fill="none" stroke="#FFFFFF" stroke-width="4" stroke-miterlimit="10" d="M1593.121,417.968l-52.992-57.973
	c-1.594-1.594-2.789-1.924-3.586-0.996c-0.532,0.797-0.797,2.392-0.797,4.781v53.391h-16.935V288.874
	c0-2.789,0.729-5.046,2.191-6.772c1.594-1.726,3.916-2.59,6.973-2.59h31.277c11.156,0,20.784,3.387,28.887,10.159
	c8.633,7.041,12.949,16.007,12.949,26.896c0,13.018-3.72,22.845-11.156,29.483c-6.375,5.847-15.074,8.899-26.098,9.164
	c-2.923,0.135-4.451,0.731-4.582,1.793c-0.134,0.932,0.529,2.126,1.992,3.586l43.229,47.414L1593.121,417.968z M1576.984,301.226
	c-4.781-4.647-10.957-6.974-18.527-6.974h-14.941c-3.454,0-5.646,0.468-6.573,1.396c-0.797,0.931-1.195,3.057-1.195,6.375v33.07
	c0,3.188,0.398,5.247,1.195,6.176c0.928,1.063,3.119,1.594,6.573,1.594h15.142c8.896,0,15.34-1.992,19.324-5.977
	c4.114-3.984,6.176-10.359,6.176-19.125C1584.156,311.121,1581.766,305.608,1576.984,301.226z"/>
<path fill="none" stroke="#FFFFFF" stroke-width="4" stroke-miterlimit="10" d="M1671.215,295.249c-3.321,0-5.447,0.467-6.375,1.396
	c-0.931,1.063-1.395,3.188-1.395,6.375v114.151h-16.734V303.019c0-3.318-0.467-5.444-1.396-6.375
	c-0.931-0.929-3.057-1.396-6.375-1.396h-24.504v-15.737h81.48v15.737H1671.215z"/>
<path fill="none" stroke="#FFFFFF" stroke-width="4" stroke-miterlimit="10" d="M1738.152,295.249c-3.321,0-5.447,0.467-6.375,1.396
	c-0.798,0.931-1.195,3.057-1.195,6.375v29.483c0,3.321,0.464,5.447,1.396,6.375c0.797,0.932,2.854,1.396,6.176,1.396h35.063v15.738
	h-35.063c-3.321,0-5.379,0.397-6.176,1.194c-0.932,0.932-1.396,2.988-1.396,6.176v53.789h-16.934V288.675
	c0-2.788,0.663-4.979,1.991-6.573c1.595-1.726,3.916-2.59,6.974-2.59h55.383v15.737H1738.152z"/>
<path fill="none" stroke="#FFFFFF" stroke-width="4" stroke-miterlimit="10" d="M1896.332,395.854
	c-11.156,14.344-26.032,21.516-44.625,21.516c-18.596,0-33.469-7.172-44.625-21.516c-10.095-13.016-15.141-29.019-15.141-48.013
	c0-18.99,5.046-34.993,15.141-48.012c11.156-14.21,26.029-21.315,44.625-21.315c18.459,0,33.335,7.105,44.625,21.315
	c10.226,13.019,15.34,29.021,15.34,48.012C1911.672,366.837,1906.558,382.84,1896.332,395.854z M1884.18,310.589
	c-7.438-11.686-18.263-17.53-32.473-17.53c-14.079,0-24.837,5.846-32.272,17.53c-6.244,9.961-9.363,22.382-9.363,37.254
	c0,14.877,3.119,27.294,9.363,37.255c7.303,11.821,18.061,17.729,32.272,17.729c14.21,0,25.033-5.908,32.473-17.729
	c6.375-9.961,9.563-22.378,9.563-37.255C1893.742,332.97,1890.555,320.55,1884.18,310.589z"/>
<path fill="none" stroke="#FFFFFF" stroke-width="4" stroke-miterlimit="10" d="M1943.348,416.374c-3.057,0-5.379-0.928-6.973-2.789
	c-1.463-1.725-2.191-3.916-2.191-6.573v-127.5h16.935v113.354c0,3.321,0.464,5.447,1.395,6.375c0.928,0.931,3.055,1.396,6.375,1.396
	h35.262v15.737H1943.348z"/>
<path fill="none" stroke="#FFFFFF" stroke-width="4" stroke-miterlimit="10" d="M2013.272,417.171V279.511h16.935v137.659H2013.272z
	"/>
<path fill="none" stroke="#FFFFFF" stroke-width="4" stroke-miterlimit="10" d="M2156.711,395.854
	c-11.156,14.344-26.032,21.516-44.625,21.516c-18.596,0-33.469-7.172-44.625-21.516c-10.095-13.016-15.142-29.019-15.142-48.013
	c0-18.99,5.047-34.993,15.142-48.012c11.156-14.21,26.029-21.315,44.625-21.315c18.459,0,33.335,7.105,44.625,21.315
	c10.226,13.019,15.34,29.021,15.34,48.012C2172.051,366.837,2166.937,382.84,2156.711,395.854z M2144.56,310.589
	c-7.439-11.686-18.264-17.53-32.474-17.53c-14.079,0-24.837,5.846-32.272,17.53c-6.244,9.961-9.363,22.382-9.363,37.254
	c0,14.877,3.119,27.294,9.363,37.255c7.303,11.821,18.061,17.729,32.272,17.729c14.21,0,25.033-5.908,32.474-17.729
	c6.375-9.961,9.563-22.378,9.563-37.255C2154.121,332.97,2150.935,320.55,2144.56,310.589z"/>
</svg>
